<?xml version="1.0" encoding="UTF-8"?>
<svg width="64" height="64" viewBox="0 0 64 64" xmlns="http://www.w3.org/2000/svg" aria-hidden="true" role="img">
  <title>Animated Rhomboid Chip Logo</title>
  <!-- Filters definitions -->
  <defs>
    <!-- Drop shadow and subtle glow filter for the pulsing chip -->
    <filter id="chip-shadow-filter" x="-50%" y="-50%" width="200%" height="200%">
      <!-- dark shadow -->
      <feDropShadow dx="0" dy="4" stdDeviation="2" flood-color="#000" flood-opacity="0.4"/>
      <!-- light glow for contrast in dark themes -->
      <feDropShadow dx="0" dy="0" stdDeviation="4" flood-color="#fff" flood-opacity="0.1"/>
    </filter>
    <!-- Ground shadow blur filter -->
    <filter id="ground-shadow-blur" x="-50%" y="-50%" width="200%" height="200%">
      <feGaussianBlur in="SourceGraphic" stdDeviation="4"/>
    </filter>
  </defs>
  <!-- Ground shadow as a wider, darker, blurry ellipse -->
  <ellipse cx="32" cy="54" rx="26" ry="8" fill="rgba(0,0,0,0.4)" filter="url(#ground-shadow-blur)" />

  <!-- Chip group: centered, rotated to form rhomboid, with combined filter -->
  <g transform="translate(32,32) rotate(45)" filter="url(#chip-shadow-filter)">
    <!-- Chip body: lighter fill & softer stroke for dark-mode visibility -->
    <rect x="-16" y="-16" width="32" height="32" rx="4" ry="4" fill="#4a4a4a" stroke="#cccccc" stroke-width="2">
      <!-- Subtle pulsing animation -->
      <animateTransform attributeName="transform" type="scale" values="1;1.05;1" dur="2s" repeatCount="indefinite"/>
    </rect>
    <!-- Chip pins: lighter color for contrast -->
    <g stroke="#aaaaaa" stroke-width="1">
      <!-- top pins -->
      <line x1="-10" y1="-24" x2="-10" y2="-20"/>
      <line x1="-4" y1="-24" x2="-4" y2="-20"/>
      <line x1="2" y1="-24" x2="2" y2="-20"/>
      <line x1="8" y1="-24" x2="8" y2="-20"/>
      <!-- bottom pins -->
      <line x1="-10" y1="24" x2="-10" y2="20"/>
      <line x1="-4" y1="24" x2="-4" y2="20"/>
      <line x1="2" y1="24" x2="2" y2="20"/>
      <line x1="8" y1="24" x2="8" y2="20"/>
      <!-- left pins -->
      <line x1="-24" y1="-10" x2="-20" y2="-10"/>
      <line x1="-24" y1="-4" x2="-20" y2="-4"/>
      <line x1="-24" y1="2" x2="-20" y2="2"/>
      <line x1="-24" y1="8" x2="-20" y2="8"/>
      <!-- right pins -->
      <line x1="24" y1="-10" x2="20" y2="-10"/>
      <line x1="24" y1="-4" x2="20" y2="-4"/>
      <line x1="24" y1="2" x2="20" y2="2"/>
      <line x1="24" y1="8" x2="20" y2="8"/>
    </g>
  </g>
</svg>

